<svg width="42" height="42" xmlns="http://www.w3.org/2000/svg">

 <g>
  <title>background</title>
  <rect fill="none" id="canvas_background" height="44" width="44" y="-1" x="-1"/>
 </g>
 <g>
  <title>Layer 1</title>
  <path fill="#333333" id="svg_1" d="m41.544651,16.899673l-0.349663,-0.718859l-0.591232,-0.446682c-0.77356,-0.602304 -4.680393,0.072927 -5.734589,-0.878386c-0.745556,-0.685651 -0.8582,-1.855747 -1.086102,-3.52006c-0.418678,-3.23421 -0.686951,-3.27393 -1.192886,-4.366541c-1.842724,-3.891209 -6.833057,-6.969145 -10.263258,-6.969145l-9.292413,0c-7.310342,0 -13.034509,5.455246 -13.034509,12.734333l0,15.441122c0,7.266066 5.724167,13.497469 13.034509,13.497469l15.267266,0c7.310343,0 13.242876,-6.089458 13.284548,-13.354218l0.086601,-10.834311l-0.128273,-0.584723zm-28.342799,-6.214476l7.367642,0c1.406462,0 2.544655,1.278187 2.544655,2.665114c0,1.385625 -1.138193,2.677485 -2.544655,2.677485l-7.367642,0c-1.405158,0 -2.544652,-1.291861 -2.544652,-2.677485c0,-1.386928 1.139494,-2.665114 2.544652,-2.665114zm14.973603,20.302528l-14.973603,0c-1.405158,0 -2.544652,-1.299023 -2.544652,-2.671625c0,-1.386929 1.139494,-2.672277 2.544652,-2.672277l14.974254,0c1.391485,0 2.528374,1.285349 2.528374,2.672277c-0.00065,1.372602 -1.137539,2.671625 -2.529024,2.671625z"/>
 </g>
</svg>