<svg width="42" height="42" xmlns="http://www.w3.org/2000/svg">
 <g>
  <title>background</title>
  <rect x="-1" y="-1" width="44" height="44" id="canvas_background" fill="none"/>
 </g>

 <g>
  <title>Layer 1</title>
  <path fill="#ffffff" d="m26.951075,15.710101l-3.931074,0l0,-3.301615c0,-1.23992 0.641727,-1.528987 1.09371,-1.528987c0.450956,0 2.774122,0 2.774122,0l0,-5.450887l-3.820524,-0.019094c-4.24114,0 -5.206295,4.065443 -5.206295,6.667097l0,3.633477l-2.452744,0l0,5.616818l2.452744,0c0,7.208378 0,15.893709 0,15.893709l5.158987,0c0,0 0,-8.770933 0,-15.893709l3.48115,0l0.44993,-5.616818l-0.000006,0.00001l0,0.000001l0,-0.000001z" id="svg_1" transform="rotate(-0.0522041, 21.1797, 21.3151)"/>
 </g>
</svg>