<svg width="42" height="42" xmlns="http://www.w3.org/2000/svg">
 <g>
  <title>background</title>
  <rect x="-1" y="-1" width="44" height="44" id="canvas_background" fill="none"/>
 </g>

 <g>
  <title>Layer 1</title>
  <path fill="#333333" d="m26.951071,15.7101l-3.93107,0l0,-3.30161c0,-1.239921 0.641729,-1.52899 1.09371,-1.52899c0.45096,0 2.77412,0 2.77412,0l0,-5.450891l-3.82052,-0.01909c-4.24114,0 -5.206301,4.06544 -5.206301,6.667089l0,3.63348l-2.45274,0l0,5.61682l2.45274,0c0,7.20838 0,15.893709 0,15.893709l5.158991,0c0,0 0,-8.770929 0,-15.893709l3.48115,0l0.44993,-5.61682l-0.00001,0.00001l0,0z" id="svg_1" transform="rotate(-0.0522041, 21.1797, 21.3151)"/>
 </g>
</svg>