<svg width="42" height="42" xmlns="http://www.w3.org/2000/svg">
 <g>
  <title>background</title>
  <rect fill="none" id="canvas_background" height="44" width="44" y="-1" x="-1"/>
 </g>

 <g>
  <title>Layer 1</title>
  <path transform="rotate(0.00317286, 28.1638, 18.8202)" id="svg_2" d="m33.724327,17.631655l-4.34182,0l0,-4.227477c0,-0.32255 -0.268761,-0.584867 -0.599373,-0.584867l-1.236309,0c-0.332922,0 -0.601685,0.262318 -0.601685,0.584867l0,4.227477l-4.341824,0c-0.330612,0 -0.600531,0.262882 -0.600531,0.585995l0,1.204069c0,0.323111 0.269918,0.584867 0.600531,0.584867l4.341824,0l0,4.229725c0,0.323114 0.268763,0.584871 0.601685,0.584871l1.236309,0c0.330612,0 0.599373,-0.261755 0.599373,-0.584871l0,-4.230289l4.34182,0c0.330616,0 0.600529,-0.261753 0.600529,-0.584864l0,-1.204069c0,-0.323114 -0.269913,-0.585432 -0.600529,-0.585432l0,-0.000002z" fill="#ffffff"/>
  <path id="svg_3" d="m18.963383,21.982405c-0.916348,-0.770912 -1.749174,-1.901453 -1.763672,-2.248672c0,-0.632439 0.047554,-0.934877 1.241703,-2.039927c1.543865,-1.435734 2.394091,-3.323405 2.394091,-5.317863c0,-1.808445 -0.46513,-3.415033 -1.256783,-4.543505l0.614183,0c0.127008,0 0.251703,-0.046845 0.353199,-0.13503l1.713793,-1.475003c0.212847,-0.181191 0.302164,-0.504298 0.220968,-0.79985c-0.081776,-0.294864 -0.311443,-0.496031 -0.573004,-0.496031l-7.664811,0c-0.838628,0 -1.690598,0.175676 -2.526907,0.517387c-2.793108,1.144315 -4.746428,3.971689 -4.746428,6.874156c0,4.112235 2.681756,7.228961 6.266519,7.326789c-0.070177,0.325863 -0.105552,0.646904 -0.105552,0.961746c0,0.63382 0.135132,1.233875 0.413513,1.813961c-0.032479,0 -0.063796,0 -0.098595,0c-3.41715,0 -6.501402,1.991699 -7.672348,4.955481c-0.305061,0.770914 -0.460491,1.550097 -0.460491,2.319633c0,0.74818 0.16181,1.468117 0.47905,2.144648c0.735975,1.563869 2.316377,2.777084 4.452386,3.417786c1.10251,0.330688 2.28738,0.499477 3.517482,0.499477c1.105412,0 2.159209,-0.169479 3.133548,-0.504307c3.037853,-1.047863 5.002195,-3.704376 5.002195,-6.770807c-0.000582,-2.942427 -0.796871,-4.704029 -2.93404,-6.500071l0,0.000002l-0.000002,0l0,0.000002l0.000002,-0.000002zm-9.680186,6.735685c0,-2.140511 2.289119,-4.017851 4.898378,-4.017851l0.070175,0c0.567786,0.00827 1.121654,0.107477 1.643619,0.297619c0.179211,0.146744 0.352039,0.286596 0.51791,0.420933c1.208645,0.978283 2.007254,1.623816 2.229382,2.659971c0.052198,0.261105 0.078299,0.522202 0.078299,0.775045c0,2.665474 -1.673203,4.01647 -4.974936,4.01647c-2.502546,0 -4.462828,-1.822908 -4.462828,-4.152187l0.000002,0zm2.374373,-20.224963c0.407716,-0.55321 0.941865,-0.845318 1.541546,-0.845318l0.067856,0.001377c1.694077,0.059248 3.315075,2.30172 3.613173,4.998888c0.16761,1.510137 -0.115412,2.930028 -0.754528,3.795321c-0.408875,0.554592 -0.935482,0.846701 -1.559526,0.846701c0,0 0,0 -0.001159,0l-0.027259,0c-1.659277,-0.060627 -3.315076,-2.388526 -3.611438,-5.08225c-0.166451,-1.506001 0.10033,-2.859755 0.731334,-3.714719l0,-0.000001l0.000002,0.000001l0,-0.000001z" fill="#ffffff"/>
 </g>
</svg>