<svg width="42" height="42" xmlns="http://www.w3.org/2000/svg">
 <g>
  <title>background</title>
  <rect x="-1" y="-1" width="5.69331" height="5.69331" id="canvas_background" fill="none"/>
 </g>

 <g>
  <title>Layer 1</title>
  <path d="m30.070999,27.101l0,-0.077c-0.015999,0.025999 -0.032999,0.052 -0.049999,0.077l0.049999,0z" id="svg_2"/>
  <path stroke-opacity="0" d="m40.529976,-1.781204l-38.073632,0c-1.822329,0 -3.300257,1.464331 -3.300257,3.269053l0,39.097448c0,1.803799 1.477928,3.268135 3.300257,3.268135l38.073632,0c1.825047,0 3.302971,-1.465252 3.302971,-3.268135l0,-39.097448c0,-1.805639 -1.478825,-3.269053 -3.302971,-3.269053zm-27.832078,38.201962l-6.747854,0l0,-20.606141l6.747854,0l0,20.606141zm-3.373474,-23.421029l-0.0452,0c-2.263443,0 -3.727817,-1.582687 -3.727817,-3.559899c0,-2.021252 1.509569,-3.5599 3.817307,-3.5599c2.308645,0 3.728721,1.538648 3.773918,3.5599c0,1.977212 -1.466178,3.559899 -3.818207,3.559899l-0.000002,0zm27.706441,23.421029l-6.747864,0l0,-11.02652c0,-2.769011 -0.976248,-4.659065 -3.417774,-4.659065c-1.863901,0 -2.973934,1.27441 -3.462963,2.505695c-0.17807,0.43948 -0.221457,1.054203 -0.221457,1.670765l0,11.508213l-6.747862,0c0,0 0.088587,-18.674807 0,-20.606149l6.747862,0l0,2.916739c0.896694,-1.403774 2.500277,-3.403012 6.082558,-3.403012c4.439215,0 7.768396,2.946095 7.768396,9.275931l0,11.817402l-0.0009,0l0.000004,0z" id="svg_3" fill="#333333"/>
 </g>
</svg>