<svg width="42" height="42" xmlns="http://www.w3.org/2000/svg">
 <g>
  <title>background</title>
  <rect x="-1" y="-1" width="44" height="44" id="canvas_background" fill="none"/>
 </g>

 <g>
  <title>Layer 1</title>
  <path d="m33.213795,2.485945l-24.083937,0c-4.183449,0 -7.586905,3.229875 -7.586905,7.200882l0,7.606779l0,15.254898c0,3.971012 3.403457,7.200882 7.586905,7.200882l24.084723,0c4.183449,0 7.586113,-3.22987 7.586113,-7.200882l0,-15.255648l0,-7.60678c-0.00079,-3.971009 -3.403458,-7.200131 -7.586903,-7.200131l0.000004,0zm2.176056,4.294222l0.867889,-0.003007l0,0.820059l0,5.496123l-6.631912,0.020295l-0.022964,-6.31543l5.786987,-0.01804zm-19.821297,10.512689c1.257486,-1.651395 3.297348,-2.734534 5.603271,-2.734534s4.345783,1.083139 5.601688,2.734534c0.818001,1.077877 1.308167,2.396284 1.308167,3.824434c0,3.616226 -3.102547,6.55821 -6.910645,6.55821c-3.810482,0 -6.909862,-2.941986 -6.909862,-6.55821c0.000793,-1.428152 0.489376,-2.746557 1.307379,-3.824434l0.000001,0zm21.406624,15.2549c0,1.970093 -1.687477,3.570374 -3.761383,3.570374l-24.083937,0c-2.074699,0 -3.762175,-1.600281 -3.762175,-3.570374l0,-15.2549l5.859838,0c-0.506004,1.181604 -0.790285,2.472198 -0.790285,3.824434c0,5.617138 4.814569,10.190224 10.734588,10.190224c5.919228,0 10.733799,-4.573086 10.733799,-10.190224c0,-1.352234 -0.285866,-2.64283 -0.79187,-3.824434l5.861425,0l0,15.2549z" id="svg_1" fill="#333333"/>
 </g>
</svg>