<svg width="42" height="42" xmlns="http://www.w3.org/2000/svg">
 <g>
  <title>background</title>
  <rect fill="#ffffff" id="canvas_background" height="44" width="44" y="-1" x="-1"/>
 </g>

 <g>
  <title>Layer 1</title>
  <path id="svg_2" d="m30.070999,27.101l0,-0.077c-0.015999,0.025999 -0.032999,0.052 -0.049999,0.077l0.049999,0z"/>
  <path fill="#003f7f" id="svg_3" d="m40.442039,-1.86914l-38.073639,0c-1.82232,0 -3.30025,1.46433 -3.30025,3.26905l0,39.09745c0,1.803791 1.47793,3.268131 3.30025,3.268131l38.073639,0c1.825039,0 3.302971,-1.465252 3.302971,-3.268131l0,-39.09745c0,-1.80564 -1.478832,-3.26905 -3.302971,-3.26905zm-27.83208,38.201961l-6.747859,0l0,-20.606141l6.747859,0l0,20.606141zm-3.37348,-23.421031l-0.045199,0c-2.26344,0 -3.72781,-1.58269 -3.72781,-3.5599c0,-2.02125 1.50957,-3.5599 3.81731,-3.5599c2.30864,0 3.72872,1.53865 3.773911,3.5599c0,1.97721 -1.46617,3.5599 -3.8182,3.5599l-0.00001,0zm27.706441,23.421031l-6.74786,0l0,-11.026522c0,-2.769009 -0.976252,-4.659069 -3.41777,-4.659069c-1.863901,0 -2.97394,1.27441 -3.462971,2.505699c-0.17807,0.43948 -0.221449,1.054201 -0.221449,1.670761l0,11.508219l-6.74786,0c0,0 0.088579,-18.674809 0,-20.606149l6.74786,0l0,2.916739c0.896688,-1.40378 2.500269,-3.40301 6.08256,-3.40301c4.439209,0 7.768391,2.94609 7.768391,9.275931l0,11.8174l-0.0009,0l0,0z"/>
 </g>
</svg>