<svg width="42" height="42" xmlns="http://www.w3.org/2000/svg">
 <g>
  <title>background</title>
  <rect fill="none" id="canvas_background" height="44" width="44" y="-1" x="-1"/>
 </g>
 <g>
  <title>Layer 1</title>
  <defs>
   <rect width="100" id="SVGID_1_" height="100"/>
  </defs>
  <path fill="#ffffff" id="svg_2" d="m33.732449,36.842472c-0.037815,0 -0.075264,-0.007637 -0.110897,-0.022541l-11.059351,-4.618698c-0.089443,-0.037449 -0.153435,-0.116714 -0.171978,-0.211613c-0.017817,-0.095261 0.012724,-0.192337 0.082535,-0.259964c1.271114,-1.234758 1.971027,-2.889462 1.971027,-4.659784c0,-0.749727 -0.127621,-1.486361 -0.3785,-2.189182c-0.010906,-0.030907 -0.016722,-0.061811 -0.017088,-0.092714l-8.074629,-10.837559c-1.622343,1.403826 -3.157425,3.501017 -2.983992,5.545488c0.013453,0.158527 -0.103987,0.297781 -0.262877,0.310509c-0.154163,0.012362 -0.29669,-0.10326 -0.310507,-0.261787c-0.20652,-2.440784 1.725603,-4.895751 3.602461,-6.378475c2.261171,-1.786686 4.713959,-2.550955 6.400656,-1.996115c0.150526,0.049448 0.233425,0.211611 0.183249,0.363227c-0.049084,0.150527 -0.210154,0.233063 -0.362862,0.182159c-1.472179,-0.483576 -3.754078,0.249061 -5.822184,1.868495l8.246607,11.067711c2.128826,1.306019 4.987013,1.239117 7.058027,-0.180708c0.081448,-0.056356 0.185795,-0.066536 0.277058,-0.026541c0.091265,0.039268 0.154528,0.122166 0.170527,0.21961l1.846317,11.847248c0.015999,0.102898 -0.023998,0.205791 -0.106171,0.270512c-0.051262,0.039631 -0.113804,0.060722 -0.177429,0.060722m-10.559416,-5.009922l10.19655,4.258739l-1.70088,-10.904095c-2.055382,1.225304 -4.730684,1.302385 -6.848967,0.211611c0.131985,0.544661 0.199249,1.104956 0.199249,1.671066c0,1.783051 -0.652647,3.45775 -1.845953,4.762678m-12.671146,-15.143202c-0.147617,0 -0.27342,-0.113441 -0.286146,-0.263241c-0.206518,-2.440786 1.724876,-4.894298 3.602461,-6.377749c2.261171,-1.785959 4.713957,-2.550955 6.401018,-1.996842c0.150528,0.050176 0.233063,0.212337 0.183252,0.362864c-0.049812,0.151254 -0.210155,0.234879 -0.362865,0.183976c-1.484905,-0.487576 -3.785709,0.258513 -5.86545,1.901581c-1.759418,1.390009 -3.573008,3.66427 -3.385759,5.876722c0.013453,0.15889 -0.103624,0.297781 -0.262512,0.310507c-0.007635,0.002182 -0.015635,0.002182 -0.023998,0.002182m19.444485,18.28499c0.418133,-1.438728 1.611435,-2.546593 3.097071,-2.841465l0.689369,4.422722l-3.78644,-1.581257zm-12.9053,-28.842947c-3.749714,0 -9.574442,5.302248 -7.472158,9.02942l12.392998,16.477944l11.770172,4.916115l-2.007753,-12.878757l-12.393362,-16.408499c-0.520662,-0.79481 -1.338379,-1.136222 -2.289896,-1.136222m0,-1.150038c1.382374,0 2.527321,0.575201 3.229053,1.621253l12.371912,16.380138c0.113441,0.151253 0.18943,0.328686 0.218884,0.516663l2.007748,12.878031c0.064354,0.411949 -0.098896,0.825718 -0.426128,1.082409c-0.206158,0.161797 -0.456669,0.24506 -0.710091,0.24506c-0.149437,0 -0.299965,-0.029083 -0.443947,-0.088352l-11.769444,-4.91684c-0.189068,-0.078537 -0.353409,-0.205791 -0.476303,-0.370136l-12.393364,-16.477216c-0.030178,-0.041086 -0.057812,-0.082537 -0.082535,-0.126894c-0.898798,-1.592894 -0.770813,-3.537014 0.359955,-5.4735c1.697969,-2.905819 5.337515,-5.270615 8.11426,-5.270615"/>
 </g>
</svg>