<svg width="42" height="42" xmlns="http://www.w3.org/2000/svg">

 <g>
  <title>background</title>
  <rect fill="none" id="canvas_background" height="44" width="44" y="-1" x="-1"/>
 </g>
 <g>
  <title>Layer 1</title>
  <path fill="#333333" id="path24_3_" d="m27.187342,20.795919c-0.199236,-3.879601 -3.079979,-6.213131 -6.558828,-6.213131l-0.130968,0c-4.014444,0 -6.240438,3.156782 -6.240438,6.742968c0,4.014591 2.692978,6.550783 6.225296,6.550783c3.936943,0 6.526356,-2.884567 6.713726,-6.295942l-0.008837,-0.784678l0.00005,0zm-6.670237,-9.68592c2.682302,0 5.204641,1.18578 7.056047,3.042396l0,0.00695c0,-0.890972 0.599939,-1.563001 1.432428,-1.563001l0.210802,-0.00139c1.301954,0 1.570101,1.232549 1.570101,1.622429l0.005857,13.856505c-0.092094,0.907604 0.936497,1.376127 1.50635,0.793465c2.225349,-2.286613 4.886848,-11.755276 -1.383272,-17.240227c-5.843456,-5.11478 -13.68433,-4.272262 -17.854219,-1.397873c-4.433319,3.057341 -7.26943,9.824833 -4.514244,16.180601c3.003819,6.931976 11.59849,8.999596 16.706964,6.936943c2.586681,-1.043938 3.781002,2.452385 1.094578,3.59507c-4.058729,1.728577 -15.3572,1.554115 -20.634725,-7.588564c-3.565928,-6.172867 -3.37697,-17.034239 6.081168,-22.661233c7.234577,-4.306023 16.773592,-3.114236 22.525345,2.892611c6.012257,6.279608 5.661003,18.039252 -0.202461,22.610394c-2.657179,2.0774 -6.603903,0.056396 -6.578981,-2.970213l-0.027008,-0.989422c-1.850111,1.835716 -4.312475,2.906807 -6.994829,2.906807c-5.299667,0 -9.963053,-4.661896 -9.963053,-9.962505c0,-5.351548 4.663385,-10.069743 9.963053,-10.069743l0,0"/>
 </g>
</svg>