<svg width="42.00000000000001" height="42.00000000000001" xmlns="http://www.w3.org/2000/svg">

 <g>
  <title>background</title>
  <rect fill="none" id="canvas_background" height="44" width="44" y="-1" x="-1"/>
 </g>
 <g>
  <title>Layer 1</title>
  <path fill="#ffffff" id="K" d="m28.36071,20.877619c-1,0 -3,2 -7,2s-6,-2 -7,-2c-1.104,0 -2,0.896 -2,2c0,1 0.568001,1.481001 1,1.733999c1.185001,0.693001 5,2.266001 5,2.266001l-4.25,5.438002c0,0 -0.75,0.934998 -0.75,1.561996c0,1.104004 0.896,2 2,2c1.021,0 1.484001,-0.655998 1.484001,-0.655998s4.508999,-5.351 4.515999,-5.344c0.007,-0.007 4.516001,5.344 4.516001,5.344s0.462999,0.655998 1.483999,0.655998c1.104,0 2,-0.895996 2,-2c0,-0.626999 -0.75,-1.561996 -0.75,-1.561996l-4.25,-5.438002c0,0 3.815001,-1.573 5,-2.266001c0.431999,-0.252998 1,-0.733999 1,-1.733999c0,-1.104 -0.896,-2 -2,-2z"/>
  <path fill="#ffffff" id="O" d="m21.280195,5.555557c-3.865999,0 -7,3.134001 -7,7.000001s3.134001,6.999999 7,6.999999c3.865,0 7,-3.134001 7,-6.999999s-3.135,-7.000001 -7,-7.000001zm0,10.5c-1.933001,0 -3.5,-1.565999 -3.5,-3.499999c0,-1.933001 1.566999,-3.5 3.5,-3.5c1.931999,0 3.5,1.566999 3.5,3.5c0,1.934 -1.568001,3.499999 -3.5,3.499999z"/>
 </g>
</svg>