<svg width="42" height="42" xmlns="http://www.w3.org/2000/svg">

 <g>
  <title>background</title>
  <rect fill="none" id="canvas_background" height="44" width="44" y="-1" x="-1"/>
 </g>
 <g>
  <title>Layer 1</title>
  <path fill="#333333" id="svg_1" d="m22.2883,3.918591c-9.535721,0 -14.344291,6.836297 -14.344291,12.538358c0,3.451839 1.306898,6.522556 4.109499,7.665916c0.459731,0.189508 0.871734,0.007021 1.005091,-0.501841c0.092649,-0.350941 0.312335,-1.239519 0.409897,-1.610813c0.134059,-0.503248 0.082119,-0.678717 -0.289175,-1.118793c-0.807861,-0.95245 -1.325147,-2.186354 -1.325147,-3.935432c0,-5.071776 3.795058,-9.612228 9.881748,-9.612228c5.389727,0 8.35095,3.293214 8.35095,7.690482c0,5.787692 -2.561155,10.672065 -6.362532,10.672065c-2.100018,0 -3.67082,-1.735744 -3.168276,-3.865946c0.602913,-2.542908 1.77154,-5.285849 1.77154,-7.122666c0,-1.642396 -0.882261,-3.012462 -2.706442,-3.012462c-2.146343,0 -3.870861,2.220742 -3.870861,5.194605c0,1.894371 0.640116,3.175999 0.640116,3.175999s-2.196181,9.306908 -2.581512,10.936668c-0.76645,3.246183 -0.115108,7.224432 -0.059658,7.62591c0.032286,0.23864 0.338305,0.296196 0.477277,0.116508c0.197228,-0.258991 2.754874,-3.414639 3.623097,-6.568878c0.246359,-0.892084 1.41148,-5.51606 1.41148,-5.51606c0.697666,1.330759 2.73592,2.50009 4.903322,2.50009c6.45096,0 10.828577,-5.881037 10.828577,-13.753309c0.000698,-5.954035 -5.041594,-11.498172 -12.7047,-11.498172z"/>
 </g>
</svg>