<svg width="42" height="42" xmlns="http://www.w3.org/2000/svg">

 <g>
  <title>background</title>
  <rect fill="none" id="canvas_background" height="44" width="44" y="-1" x="-1"/>
 </g>
 <g>
  <title>Layer 1</title>
  <path fill="#333333" id="svg_1" d="m22.940742,4.367234l0,7.624544l7.623205,0l0,5.8874l-7.623205,0l0,8.453926c0,1.912666 -0.023449,3.01605 0.178204,3.558029c0.201649,0.539297 0.706781,1.099365 1.256128,1.422274c0.731573,0.438139 1.562292,0.656538 2.501543,0.656538c1.669481,0 3.330254,-0.541977 4.981646,-1.626604l0,5.198706c-1.406868,0.663235 -2.683765,1.130852 -3.826008,1.396145c-1.143578,0.265293 -2.377602,0.401962 -3.705416,0.401962c-1.507355,0 -2.397032,-0.190933 -3.55401,-0.569447c-1.158989,-0.383202 -2.147146,-0.92786 -2.963799,-1.627945c-0.820671,-0.705441 -1.385429,-1.455101 -1.701639,-2.247635c-0.316878,-0.794548 -0.474983,-1.945494 -0.474983,-3.45285l0,-11.563099l-4.479193,0l0,-4.670126c1.294987,-0.420049 2.796313,-1.022993 3.718145,-1.808157c0.925852,-0.787846 1.666801,-1.729776 2.224188,-2.83182c0.561407,-1.099365 0.94595,-2.501542 1.156981,-4.20117l4.688213,0l0,-0.00067z"/>
 </g>
</svg>