<svg width="42" height="42" xmlns="http://www.w3.org/2000/svg">
 <g>
  <title>background</title>
  <rect x="-1" y="-1" width="5.693283" height="5.693283" id="canvas_background" fill="none"/>
 </g>

 <g>
  <title>Layer 1</title>
  <path fill="#333333" d="m37.010307,11.021023c-1.121437,0.536264 -2.328327,0.897991 -3.594662,1.05987c1.292965,-0.832705 2.284359,-2.151711 2.751881,-3.725193c-1.20937,0.772085 -2.548157,1.33233 -3.974258,1.634768c-1.141251,-1.308346 -2.767986,-2.126397 -4.568108,-2.126397c-3.455956,0 -6.257999,3.014393 -6.257999,6.732926c0,0.526937 0.055111,1.040549 0.162239,1.534175c-5.201584,-0.281119 -9.813657,-2.961102 -12.900552,-7.034697c-0.538736,0.993917 -0.847116,2.150377 -0.847116,3.385448c0,2.335571 1.104718,4.396687 2.784087,5.603779c-1.025455,-0.035309 -1.990845,-0.338413 -2.834865,-0.842701c-0.00062,0.027981 -0.00062,0.056625 -0.00062,0.085272c0,3.261543 2.157419,5.982159 5.02077,6.601692c-0.525113,0.153217 -1.078092,0.235821 -1.649027,0.235821c-0.403743,0 -0.795718,-0.041967 -1.177789,-0.121239c0.796957,2.67465 3.107949,4.621849 5.846211,4.675806c-2.141939,1.805977 -4.839952,2.882494 -7.772655,2.882494c-0.504679,0 -1.003164,-0.031975 -1.492979,-0.094593c2.770463,1.911228 6.059846,3.025055 9.593831,3.025055c11.512222,0 17.806757,-10.258938 17.806757,-19.156235c0,-0.29178 -0.005577,-0.582891 -0.017338,-0.872007c1.22237,-0.947289 2.283745,-2.133728 3.122189,-3.484045l0.000004,0z" id="svg_1"/>
 </g>
</svg>