<svg width="42" height="42" xmlns="http://www.w3.org/2000/svg">
 <g>
  <title>background</title>
  <rect x="-1" y="-1" width="44" height="44" id="canvas_background" fill="none"/>
 </g>

 <g>
  <title>Layer 1</title>
  <path d="m37.010311,11.02102c-1.121441,0.53627 -2.328331,0.89799 -3.594662,1.05987c1.292961,-0.8327 2.284351,-2.15171 2.751881,-3.72519c-1.20937,0.77208 -2.548161,1.332331 -3.974258,1.63477c-1.141253,-1.30835 -2.767992,-2.1264 -4.568111,-2.1264c-3.455959,0 -6.257999,3.01439 -6.257999,6.73293c0,0.52693 0.055109,1.04055 0.162239,1.53417c-5.20158,-0.28112 -9.81366,-2.961101 -12.90055,-7.03469c-0.53874,0.99391 -0.84712,2.15037 -0.84712,3.38544c0,2.335569 1.10472,4.39669 2.78409,5.603779c-1.025459,-0.035309 -1.990849,-0.338409 -2.83487,-0.842699c-0.00062,0.027981 -0.00062,0.056629 -0.00062,0.08527c0,3.261551 2.15742,5.982161 5.02077,6.6017c-0.525109,0.15321 -1.07809,0.235821 -1.649019,0.235821c-0.40375,0 -0.79572,-0.041971 -1.177791,-0.121241c0.79696,2.67465 3.10795,4.621851 5.84621,4.6758c-2.14194,1.805981 -4.839951,2.8825 -7.77266,2.8825c-0.50467,0 -1.00316,-0.031981 -1.49297,-0.094601c2.77046,1.91123 6.05984,3.025061 9.59383,3.025061c11.51222,0 17.806749,-10.25894 17.806749,-19.15624c0,-0.29178 -0.005569,-0.582891 -0.01733,-0.872001c1.22237,-0.947289 2.283741,-2.13373 3.122192,-3.48405z" id="svg_1" fill="#ffffff"/>
 </g>
</svg>