<svg width="42" height="42" xmlns="http://www.w3.org/2000/svg">

 <g>
  <title>background</title>
  <rect fill="none" id="canvas_background" height="44" width="44" y="-1" x="-1"/>
 </g>
 <g>
  <title>Layer 1</title>
  <path fill="#333333" id="svg_2" d="m24.641998,5.279765c2.974041,0.118961 5.115349,0.951693 7.256657,2.617155c2.617157,1.903385 4.163658,4.639503 4.758465,7.970428c0.118965,0.951693 0.237923,1.665462 0.237923,2.736116c0,0.832731 0.118961,1.070656 0.237926,1.308578c0.118958,0.237925 0.356884,0.356886 0.475842,0.356886c0.118965,0 0.237926,0 0.237926,-0.118961c0.237923,-0.118963 0.356884,-0.475847 0.237923,-0.832733c0,-0.118961 -0.118961,-0.237923 -0.118961,-0.832729c0,-1.189617 -0.118961,-1.903387 -0.356888,-2.855082c-0.713768,-3.687807 -2.37923,-6.661847 -5.234306,-8.684196c-2.379232,-1.784424 -4.758465,-2.617156 -7.970428,-2.855079c-0.951693,0 -1.070658,-0.118961 -1.070658,-0.118961c-0.237921,-0.237923 -0.594807,-0.118961 -0.832729,0.118961c0.118961,0.237924 0.118961,0.594809 0.356886,0.832732c0.475843,0.237923 0.832731,0.356885 1.784424,0.356885z"/>
  <path fill="#333333" id="svg_3" d="m30.963356,13.308808c0.599245,1.07864 0.958794,2.39698 0.958794,3.71532c0,0.838943 0.119846,1.558039 0.838943,2.037434c0.119846,0 0.119846,0.11985 0.239697,0.11985c0.239697,0 0.479397,-0.11985 0.479397,-0.359547c0.11985,-0.239698 0,-0.599245 -0.2397,-0.838945c-0.119846,0 -0.239697,-0.119848 -0.239697,-0.958792c0,-1.558038 -0.359547,-3.116075 -1.07864,-4.314566c-0.719095,-1.438188 -1.917585,-2.636678 -3.235924,-3.355773c-1.19849,-0.719094 -2.876377,-1.19849 -4.434416,-1.318339c-0.479395,0 -0.599245,-0.119848 -0.599245,-0.239696c-0.239697,-0.239699 -0.599245,-0.239699 -0.838942,0c-0.239698,0.239696 -0.239698,0.599245 0,0.838941c0.239697,0.359549 0.838942,0.479397 1.31834,0.479397c1.438187,0.119848 2.876375,0.599245 3.955017,1.19849c1.19849,0.719093 2.15728,1.677887 2.876375,2.996226z"/>
  <path fill="#333333" id="svg_4" d="m28.434423,16.582899c-0.137785,-0.964497 -0.275568,-1.653422 -0.55114,-2.204562c-0.688925,-1.377851 -1.791206,-2.204561 -3.720194,-2.342346c-0.688925,-0.137785 -0.688925,-0.137785 -0.826714,-0.275569c-0.275568,-0.275571 -0.688925,-0.413357 -0.964495,-0.137786c-0.275568,0.27557 -0.275568,0.688926 -0.137785,0.964496c0.413355,0.413355 0.826712,0.551141 1.653421,0.688924c1.377851,0.137786 2.204559,0.688925 2.617916,1.653421c0.275568,0.55114 0.413357,1.102279 0.413357,1.791205c0.137783,0.688925 0.275568,1.240067 0.688925,1.515636c0.137783,0.137785 0.275568,0.137785 0.413355,0.137785c0.275568,0 0.413353,-0.137785 0.55114,-0.275572c0.27557,-0.275568 0.137785,-0.688925 -0.137787,-0.964493c0.137787,0 0,0 0,-0.55114z"/>
  <path fill="#333333" id="svg_5" d="m38.237038,29.693476c-0.482151,-0.482151 -3.053623,-2.571468 -4.178638,-3.375057c-0.964306,-0.642866 -2.250042,-1.446451 -3.053627,-1.767883c-0.9643,-0.482153 -2.089319,-0.642872 -3.053623,-0.321436c-0.803585,0.321436 -1.125017,0.642868 -2.089319,1.767887c-0.482153,0.482151 -0.803585,0.964304 -0.803585,1.125021c0,0 -0.160717,0.160715 -0.321436,0.160715c-0.482149,0.160717 -1.285734,0 -2.732189,-0.642868c-1.285736,-0.642868 -2.250036,-1.446453 -3.535772,-2.571472c-1.125019,-0.964304 -2.089323,-2.250038 -2.732188,-3.21434c-0.803585,-1.285736 -1.285737,-2.892906 -1.285737,-3.535772c0,-0.321436 0,-0.803585 0.160718,-0.964304c0,0 0.160716,-0.160717 0.160716,-0.160717c0.160718,-0.160717 0.482151,-0.321435 0.803585,-0.642869c1.446453,-1.125019 1.928602,-1.60717 2.089321,-2.410755c0.160717,-0.803585 0,-1.767887 -0.642868,-3.053623c-0.964302,-1.928604 -4.017924,-6.107246 -5.30366,-6.910831c-0.160718,-0.160717 -0.642869,-0.321434 -0.803585,-0.482151c-0.642869,-0.160717 -1.446454,-0.160717 -1.928605,-0.160717c-0.642868,0.160717 -1.446453,0.642868 -3.053624,1.767887c-0.803585,0.642868 -2.089321,1.928604 -2.571472,2.571472c-0.803585,1.60717 -0.642868,2.892906 0.160717,4.982227c1.125019,2.892906 2.571472,5.785813 4.33936,8.678721c0.321434,0.482149 0.482151,0.803585 0.803585,1.285734c0.321434,0.482151 0.642869,0.803585 0.964302,1.285734c2.892907,4.017929 6.42868,7.392982 10.446606,10.125174l0.160717,0.160717c0.160715,0.160717 0.482149,0.32143 0.642868,0.482147l0.482151,0.321438c0.321434,0.160717 0.482151,0.32143 0.803585,0.482147l4.500076,2.571476c0.321432,0.160717 0.642868,0.321434 0.964302,0.482147l0.482151,0.160717c0.482149,0.160721 0.964302,0.482155 1.446451,0.642868c0.964304,0.321438 1.446453,0.482155 2.089323,0.482155c0.160715,0 0.160715,0 0.321432,0c1.125019,0 2.089325,-0.482155 3.21434,-1.28574c1.28574,-0.964298 3.053623,-3.053623 3.535774,-4.339355c0.482151,-1.446451 0.321434,-2.732191 -0.482151,-3.696493z"/>
 </g>
</svg>