<svg width="42" height="42" xmlns="http://www.w3.org/2000/svg">
 <g>
  <title>background</title>
  <rect x="-1" y="-1" width="44" height="44" id="canvas_background" fill="none"/>
 </g>

 <g>
  <title>Layer 1</title>
  <path d="m37.047794,29.987762c-0.038712,-0.100357 -0.074772,-0.18362 -0.108276,-0.250326c-0.554268,-1.201778 -1.613472,-2.676861 -3.176975,-4.42569l-0.033031,-0.040058l-0.016563,-0.01963l-0.016708,-0.02013l-0.01675,0c-0.709625,-0.814344 -1.158974,-1.361887 -1.347134,-1.642223c-0.344324,-0.534016 -0.421465,-1.074558 -0.233265,-1.622231c0.132942,-0.413805 0.632305,-1.287693 1.497013,-2.622866c0.454834,-0.707603 0.815067,-1.274717 1.081078,-1.701986c1.918518,-3.070535 2.75029,-5.032662 2.495121,-5.887114l-0.099144,-0.199683c-0.066582,-0.120214 -0.238419,-0.230186 -0.515305,-0.330469c-0.277561,-0.100085 -0.632301,-0.116645 -1.064899,-0.049937l-4.790302,0.039824c-0.07761,-0.033101 -0.188393,-0.03001 -0.332779,0.010113c-0.144196,0.040105 -0.21632,0.060249 -0.21632,0.060249l-0.083344,0.050133l-0.0662,0.060246c-0.055466,0.039843 -0.11647,0.109906 -0.183052,0.210059c-0.066208,0.099811 -0.121624,0.216928 -0.165916,0.350396c-0.521515,1.615293 -1.114491,3.117121 -1.779961,4.50537c-0.410355,0.827814 -0.787148,1.545231 -1.13129,2.152681c-0.343666,0.607231 -0.632015,1.054625 -0.864708,1.341404c-0.233025,0.287075 -0.443333,0.517052 -0.632206,0.690784c-0.188583,0.173784 -0.332546,0.247215 -0.432209,0.22035c-0.099949,-0.02685 -0.194031,-0.053507 -0.283092,-0.080162c-0.155178,-0.120205 -0.279924,-0.283703 -0.374054,-0.490606c-0.094456,-0.206896 -0.158108,-0.467299 -0.191376,-0.781013c-0.033081,-0.313929 -0.052673,-0.583956 -0.058258,-0.810984c-0.005156,-0.22674 -0.002796,-0.547476 0.008472,-0.961279c0.011497,-0.414009 0.016705,-0.694132 0.016705,-0.841002c0,-0.507359 0.008232,-1.057994 0.024704,-1.652041c0.016796,-0.59405 0.030331,-1.064725 0.041691,-1.411473c0.011312,-0.347106 0.016563,-0.714336 0.016563,-1.101486s-0.019592,-0.690766 -0.058254,-0.911134c-0.038242,-0.220087 -0.096878,-0.433709 -0.174202,-0.640822c-0.077751,-0.206902 -0.191616,-0.366959 -0.340973,-0.480577c-0.149685,-0.113469 -0.335762,-0.203531 -0.557198,-0.270432c-0.587765,-0.160125 -1.336243,-0.246747 -2.245728,-0.260209c-2.062435,-0.026654 -3.387655,0.133677 -3.975372,0.480789c-0.232838,0.146634 -0.443571,0.347024 -0.631969,0.600492c-0.199663,0.293797 -0.227534,0.454132 -0.083385,0.480494c0.665423,0.120001 1.136539,0.407077 1.413764,0.860912l0.099903,0.24051c0.077751,0.173507 0.155315,0.480704 0.232975,0.92116c0.07756,0.440441 0.127636,0.927669 0.149639,1.461411c0.055321,0.974683 0.055321,1.809003 0,2.503074c-0.05551,0.694334 -0.107943,1.234875 -0.158012,1.622025c-0.05002,0.387146 -0.124846,0.700855 -0.224602,0.941088c-0.099903,0.240276 -0.166348,0.387152 -0.199711,0.440435c-0.033268,0.05331 -0.061005,0.086903 -0.083008,0.10009c-0.144146,0.066496 -0.294025,0.100368 -0.449154,0.100368c-0.155411,0 -0.343811,-0.093565 -0.565523,-0.280548c-0.221711,-0.186974 -0.451757,-0.443811 -0.690224,-0.770927c-0.238419,-0.327177 -0.507364,-0.784409 -0.806878,-1.371714c-0.299279,-0.58732 -0.609774,-1.281452 -0.931388,-2.082401l-0.266058,-0.580856c-0.166348,-0.373682 -0.393551,-0.917807 -0.681898,-1.631855c-0.288486,-0.714327 -0.543471,-1.405301 -0.765135,-2.072783c-0.088642,-0.280332 -0.221764,-0.493757 -0.399136,-0.640611l-0.08329,-0.060247c-0.055322,-0.053306 -0.144151,-0.109907 -0.266058,-0.170232c-0.122047,-0.060246 -0.249397,-0.103441 -0.382568,-0.130033l-4.557563,0.039841c-0.46572,0 -0.781726,0.127022 -0.948119,0.380704l-0.066584,0.12c-0.033269,0.066834 -0.050047,0.173584 -0.050047,0.320518c0,0.146867 0.03327,0.327113 0.099855,0.540525c0.665331,1.882442 1.388848,3.697911 2.170572,5.446675c0.781704,1.748758 1.461021,3.157436 2.037502,4.224756c0.576597,1.0681 1.164316,2.076157 1.763162,3.023693c0.598839,0.947876 0.995226,1.555328 1.18916,1.822197c0.194175,0.267344 0.3467,0.467239 0.457582,0.6007l0.415882,0.480499c0.26615,0.320456 0.656958,0.704229 1.172604,1.15134c0.515785,0.447412 1.086754,0.88785 1.713278,1.322067c0.626621,0.433498 1.355652,0.787277 2.18742,1.06086c0.831631,0.273895 1.641117,0.383801 2.428448,0.330767l1.912891,0c0.387966,-0.040329 0.68185,-0.187178 0.881649,-0.440653l0.066162,-0.100361c0.044533,-0.079683 0.086174,-0.203472 0.124603,-0.370049c0.038948,-0.166851 0.058304,-0.350677 0.058304,-0.550621c-0.011406,-0.573925 0.024895,-1.091179 0.107853,-1.551701c0.082912,-0.460367 0.177418,-0.807461 0.283092,-1.041225c0.105629,-0.233551 0.224838,-0.430634 0.357487,-0.590399c0.132938,-0.160122 0.227676,-0.257114 0.283241,-0.290508c0.055222,-0.03359 0.099331,-0.056387 0.132603,-0.070065c0.266148,-0.106741 0.579342,-0.003349 0.940094,0.310633c0.360424,0.313719 0.698505,0.701077 1.014721,1.161451c0.316086,0.460787 0.695812,0.977755 1.13929,1.551678c0.443764,0.574141 0.831768,1.000898 1.164314,1.28166l0.332554,0.240288c0.222042,0.160336 0.510387,0.307194 0.865322,0.440659c0.354267,0.133389 0.664669,0.166786 0.931198,0.100082l4.257999,-0.079948c0.421135,0 0.748859,-0.083954 0.981316,-0.250519c0.232887,-0.16687 0.371258,-0.350681 0.41589,-0.550652c0.044529,-0.200161 0.046898,-0.427258 0.008469,-0.681152c-0.039467,-0.253256 -0.078323,-0.430332 -0.116985,-0.53043l-0.000004,0.000004z" id="svg_2" transform="rotate(0.0217744, 21.2437, 21.1424)" fill="#ffffff"/>
 </g>
</svg>