<svg width="42" height="42" xmlns="http://www.w3.org/2000/svg">

 <g>
  <title>background</title>
  <rect fill="none" id="canvas_background" height="44" width="44" y="-1" x="-1"/>
 </g>
 <g>
  <title>Layer 1</title>
  <path fill="#ffffff" id="path9" d="m27.754862,6.43636l-4.78363,0c-4.700256,0 -8.686522,3.323242 -8.686522,9.774566c0,3.870789 1.930419,6.724426 5.371032,8.13205l-6.419585,10.791321c-0.210144,0.352203 0,0.624847 0.334808,0.624847l2.979613,0c0.252136,0 0.419891,-0.077972 0.503845,-0.272552l5.832855,-10.596252l2.09787,0l0,10.596252c0,0.116913 0.12619,0.272552 0.293213,0.272552l2.60257,0c0.251862,0 0.335754,-0.116608 0.335754,-0.311676l0,-28.620177c0,-0.274048 -0.167938,-0.39093 -0.461823,-0.39093zm-2.769714,15.952331l-1.762451,0c-2.769379,0 -5.45462,-1.877289 -5.45462,-6.568725c0,-4.88797 2.517273,-6.881866 5.076843,-6.881866l2.140228,0l0,13.450591z"/>
 </g>
</svg>