<svg width="41.99999999999999" height="41.99999999999999" xmlns="http://www.w3.org/2000/svg">

 <g>
  <title>background</title>
  <rect fill="none" id="canvas_background" height="44" width="44" y="-1" x="-1"/>
 </g>
 <g>
  <title>Layer 1</title>
  <path fill="#ffffff" id="svg_2" d="m31.354456,14.60079c0.2019,-0.04569 0.502178,-0.121285 0.841372,-0.204356l2.626896,0l0.408939,-0.683681c0.008812,-0.004985 0.024231,-0.006647 0.033039,-0.006647l1.016838,-1.661432c-0.014683,0 -0.03891,-0.003324 -0.049923,-0.003324l0.106457,-0.180264l-14.238695,0l0.547699,2.534515l3.886019,0l-6.538612,6.678131c-1.33474,-2.085096 -4.462349,-6.429746 -6.6436,-10.025918l4.894783,0l0,-1.928926l0.055798,-0.425325c-0.014685,-0.003325 -0.041849,-0.008307 -0.055798,-0.008307l0,-0.173619l-16.234936,0l0,2.536179l4.814756,0c1.868488,1.653126 9.015737,11.750487 9.312346,12.758147c0.118938,0.942863 0.228331,6.509497 -0.121874,6.929838c-0.702612,0.840687 -3.90731,0.618055 -4.680402,0.679529l-0.267242,1.724567c1.41183,0.047348 6.006333,-0.129593 7.434314,-0.129593c2.814848,0 7.744871,-0.014954 8.440138,0.045689l0.085899,-1.809299c-0.711422,-0.136238 -4.591562,-0.016615 -5.127514,-0.154514c-0.118938,-0.876406 -0.249622,-6.736282 -0.130686,-7.341877c0.535952,-1.749489 8.690495,-8.877037 9.58399,-9.149511z"/>
  <path fill="#ffffff" id="svg_3" d="m34.674644,25.743183l1.847622,0.16239l2.152344,-9.19912c-0.359447,-0.013763 -3.625587,-0.355057 -4.049717,-0.445885l0.049751,9.482615z"/>
  <polygon fill="#ffffff" id="svg_4" points="34.60510496941697,26.89718597119895 34.61382791007327,28.4788257019527 35.342365803298435,28.54232202703247 36.13002975798827,28.600975009659123 36.361240445101885,27.052296035715926 35.53091849675093,27.011581358471176 "/>
 </g>
</svg>